<svg xmlns="http://www.w3.org/2000/svg" width="60" height="60" viewBox="0 0 60 60">
    <g fill="#F7931D" fill-rule="evenodd">
        <path d="M22.5 54.375h17.813V52.5H22.5zM20.625 50.625h21.563V48.75H20.625z"/>
        <path d="M11.25 54.375c-5.17 0-9.375-4.206-9.375-9.375 0-5.17 4.206-9.375 9.375-9.375h40.313c.518 0 .937.42.937.938a4.693 4.693 0 0 1-4.688 4.687H11.25A3.754 3.754 0 0 0 7.5 45a3.754 3.754 0 0 0 3.75 3.75h1.875v1.875H11.25A5.63 5.63 0 0 1 5.625 45a5.63 5.63 0 0 1 5.625-5.625h36.563a2.818 2.818 0 0 0 2.652-1.875H11.25c-4.135 0-7.5 3.365-7.5 7.5s3.365 7.5 7.5 7.5v1.875zM45.938 48.75a4.693 4.693 0 0 0-4.688 4.688 4.693 4.693 0 0 0 4.688 4.687 4.693 4.693 0 0 0 4.687-4.688 4.693 4.693 0 0 0-4.688-4.687m0 11.25a6.57 6.57 0 0 1-6.562-6.563 6.57 6.57 0 0 1 6.563-6.562 6.57 6.57 0 0 1 6.562 6.563A6.57 6.57 0 0 1 45.937 60"/>
        <path d="M16.875 48.75a4.693 4.693 0 0 0-4.688 4.688 4.693 4.693 0 0 0 4.688 4.687 4.693 4.693 0 0 0 4.688-4.688 4.693 4.693 0 0 0-4.688-4.687m0 11.25a6.57 6.57 0 0 1-6.563-6.563 6.57 6.57 0 0 1 6.563-6.562 6.57 6.57 0 0 1 6.563 6.563A6.57 6.57 0 0 1 16.875 60M8.438 37.5H6.562v-30c0-1.034-.84-1.875-1.875-1.875V3.75a3.754 3.754 0 0 1 3.75 3.75v30zM12.188 15.938h-1.876V7.5c0-1.034-.84-1.875-1.874-1.875V3.75a3.754 3.754 0 0 1 3.75 3.75v8.438z"/>
        <path d="M0 5.625h8.438V3.75H0zM0 60h60v-1.875H0zM48.75 24.375c-1.395 0-2.066-.712-2.557-1.232-.404-.428-.607-.643-1.193-.643-.586 0-.79.215-1.193.643-.49.52-1.162 1.232-2.557 1.232-1.393 0-2.066-.712-2.557-1.23-.405-.43-.607-.645-1.193-.645-.585 0-.788.215-1.193.644-.492.52-1.164 1.231-2.557 1.231-1.392 0-2.065-.712-2.557-1.23-.405-.43-.608-.645-1.193-.645-.585 0-.788.215-1.193.644-.492.52-1.164 1.231-2.557 1.231s-2.065-.712-2.557-1.23c-.404-.43-.607-.645-1.193-.645-.585 0-.788.215-1.193.644-.492.52-1.164 1.231-2.557 1.231-1.392 0-2.065-.712-2.557-1.23-.405-.43-.608-.645-1.193-.645v-1.875c1.392 0 2.065.712 2.557 1.23.405.43.608.645 1.193.645.585 0 .788-.215 1.193-.644.492-.52 1.164-1.231 2.557-1.231s2.066.712 2.558 1.23c.404.43.607.645 1.192.645s.788-.215 1.193-.644c.492-.52 1.164-1.231 2.557-1.231 1.392 0 2.065.712 2.557 1.23.405.43.608.645 1.193.645.585 0 .788-.215 1.193-.644.492-.52 1.164-1.231 2.557-1.231s2.066.712 2.557 1.23c.405.43.607.645 1.193.645.586 0 .79-.215 1.193-.643.49-.52 1.162-1.232 2.557-1.232s2.066.712 2.557 1.232c.404.428.607.643 1.193.643.585 0 .788-.215 1.193-.644.492-.52 1.164-1.231 2.557-1.231V22.5c-.585 0-.788.215-1.193.644-.492.52-1.164 1.231-2.557 1.231M48.75 31.875c-1.395 0-2.066-.712-2.557-1.232C45.788 30.215 45.586 30 45 30c-.586 0-.79.215-1.193.643-.49.52-1.162 1.232-2.557 1.232-1.393 0-2.066-.712-2.557-1.23-.405-.43-.607-.645-1.193-.645-.585 0-.788.215-1.193.644-.492.52-1.164 1.231-2.557 1.231-1.392 0-2.065-.712-2.557-1.23-.405-.43-.608-.645-1.193-.645-.585 0-.788.215-1.193.644-.492.52-1.164 1.231-2.557 1.231s-2.065-.712-2.557-1.23c-.404-.43-.607-.645-1.193-.645-.585 0-.788.215-1.193.644-.492.52-1.164 1.231-2.557 1.231-1.392 0-2.065-.712-2.557-1.23-.405-.43-.608-.645-1.193-.645v-1.875c1.392 0 2.065.712 2.557 1.23.405.43.608.645 1.193.645.585 0 .788-.215 1.193-.644.492-.52 1.164-1.231 2.557-1.231s2.066.712 2.558 1.23c.404.43.607.645 1.192.645s.788-.215 1.193-.644c.492-.52 1.164-1.231 2.557-1.231 1.392 0 2.065.712 2.557 1.23.405.43.608.645 1.193.645.585 0 .788-.215 1.193-.644.492-.52 1.164-1.231 2.557-1.231s2.066.712 2.557 1.23c.405.43.607.645 1.193.645.586 0 .79-.215 1.193-.643.49-.52 1.162-1.232 2.557-1.232s2.066.712 2.557 1.232c.404.428.607.643 1.193.643v1.875zM16.875 55.313A1.877 1.877 0 0 1 15 53.437c0-1.034.84-1.874 1.875-1.874 1.034 0 1.875.84 1.875 1.874 0 1.035-.84 1.876-1.875 1.876M45.938 55.313a1.877 1.877 0 0 1-1.876-1.876c0-1.034.841-1.874 1.876-1.874 1.034 0 1.874.84 1.874 1.874 0 1.035-.84 1.876-1.874 1.876M44.063 13.125h-1.876v-3.75h-22.5v3.75h-1.875V8.437c0-.517.42-.937.938-.937h24.375c.518 0 .938.42.938.938v4.687z"/>
        <path d="M50.625 13.125H48.75V1.875h-15v3.75h-1.875V.937c0-.517.42-.937.938-.937h16.874c.519 0 .938.42.938.938v12.187z"/>
        <path d="M40.313 3.75h1.874V1.875h-1.874V3.75zm2.812 1.875h-3.75a.937.937 0 0 1-.938-.938V.938c0-.517.42-.937.938-.937h3.75c.518 0 .938.42.938.938v3.75c0 .517-.42.937-.938.937zM51.563 37.5H11.25a.937.937 0 0 1-.938-.938V15.939h1.876v19.687h38.718l6.818-18.75H14.063V15h45a.938.938 0 0 1 .88 1.258l-7.5 20.625a.935.935 0 0 1-.88.617"/>
    </g>
</svg>
