<svg xmlns="http://www.w3.org/2000/svg" width="64" height="64" viewBox="0 0 64 64">
    <g fill="#F7931D" fill-rule="evenodd">
        <path d="M54.272 13.373L57 11.215a34.203 34.203 0 0 0-2.62-2.618L52 11.112a30.968 30.968 0 0 1 2.272 2.261M61 17.982a28.057 28.057 0 0 0-1.465-2.698L57 16.766c.465.757.89 1.54 1.27 2.338L61 17.982z"/>
        <path d="M62.91 23.162l-3.136.806c1.804 6.925.748 14.122-2.994 20.322-3.832 6.349-10.022 10.892-17.43 12.792-2.416.62-4.91.935-7.414.938-4.284 0-8.584-.949-12.436-2.742l-.6-.277-12.998 4.28 2.8-12.597-.396-.552C3.969 40.097 2.351 32.808 3.751 25.61 5.15 18.412 9.4 12.165 15.716 8.02c4.76-3.123 10.33-4.787 16.104-4.813 5.59-.028 11.01 1.49 15.7 4.387l1.817-2.573A32.758 32.758 0 0 0 32.007.086c-2.05 0-4.113.189-6.17.571C17.465 2.215 10.23 6.794 5.461 13.553c-7.153 10.14-7.29 23.331-.348 33.605l.12.18L1.534 64l17.17-5.649.196.085a32.582 32.582 0 0 0 13.02 2.687h.017c8.536-.007 16.559-3.19 22.59-8.962 6.031-5.772 9.35-13.443 9.343-21.6a29.272 29.272 0 0 0-.959-7.399"/>
        <path d="M27.13 23.966L15 35.14l2.295 2.115 9.835-9.059 9.74 8.973L49 25.995l-2.295-2.114-9.835 9.058z"/>
    </g>
</svg>
