<svg xmlns="http://www.w3.org/2000/svg" width="64" height="56" viewBox="0 0 64 56">
    <g fill="#F7931D" fill-rule="evenodd">
        <path d="M16 33h-1c-2.206 0-4-1.794-4-4h2c0 1.103.897 2 2 2h1c1.103 0 2-.897 2-2v-1c-.072-.205-.792-.775-1.448-1.106l-.107-.062-2.95-1.967C12.838 24.528 11 23.456 11 22v-1c0-2.206 1.794-4 4-4h1c2.206 0 4 1.794 4 4h-2c0-1.103-.897-2-2-2h-1c-1.103 0-2 .897-2 2v1c.072.205.792.775 1.448 1.106l.107.062 2.95 1.967C18.162 25.472 20 26.544 20 28v1c0 2.206-1.794 4-4 4M31 33h-2V21c0-1.103-.897-2-2-2h-1c-1.103 0-2 .897-2 2v12h-2V21c0-2.206 1.794-4 4-4h1c2.206 0 4 1.794 4 4v12z"/>
        <path d="M23 28h7v-2h-7zM45 26h6v-2h-6z"/>
        <path d="M53 33h-7c-1.103 0-2-.897-2-2V19c0-1.103.897-2 2-2h7v2h-7v12h7v2zM42 33h-7c-1.103 0-2-.897-2-2V17h2v14h7v2zM6 4h4V2H6zM12 4h4V2h-4zM18 4h4V2h-4zM24 4h4V2h-4zM30 4h4V2h-4zM36 4h4V2h-4zM42 4h4V2h-4zM48 4h4V2h-4z"/>
        <path d="M42 4h4V2h-4zM48 4h4V2h-4zM54 4h4V2h-4z"/>
        <path d="M54 4h4V2h-4zM12 48h4v-2h-4zM24 48h4v-2h-4zM30 48h4v-2h-4zM36 48h4v-2h-4zM42 48h4v-2h-4zM48 48h4v-2h-4zM54 48h4v-2h-4zM2 6H0V2h4v2H2zM64 6h-2V4h-2V2h4zM64 48h-4v-2h2v-2h2zM0 12h2V8H0zM0 24h2v-4H0zM0 30h2v-4H0zM0 36h2v-4H0zM62 12h2V8h-2zM62 24h2v-4h-2zM62 18h2v-4h-2zM0 18h2v-4H0zM62 30h2v-4h-2zM62 36h2v-4h-2zM62 42h2v-4h-2zM4 40c-1.103 0-2 .897-2 2s.897 2 2 2 2-.897 2-2-.897-2-2-2m0 6c-2.206 0-4-1.794-4-4s1.794-4 4-4 4 1.794 4 4-1.794 4-4 4M4 50c-1.103 0-2 .897-2 2s.897 2 2 2 2-.897 2-2-.897-2-2-2m0 6c-2.206 0-4-1.794-4-4s1.794-4 4-4 4 1.794 4 4-1.794 4-4 4"/>
        <path d="M25.499 54.865l-19-11 1.002-1.73 19 11z"/>
        <path d="M7.501 51.865l-1.002-1.73 19-11 1.002 1.73zM56 26h2v-2h-2zM6 26h2v-2H6z"/>
    </g>
</svg>
