<svg xmlns="http://www.w3.org/2000/svg" width="64" height="58" viewBox="0 0 64 58">
    <g fill="#F7931D" fill-rule="evenodd">
        <path d="M29 48h-2c0-2.206 1.794-4 4-4h11c1.103 0 2-.898 2-2 0-1.103-.897-2-2-2h-9.176l-11-4H13v-2h9.176l11 4H42c2.206 0 4 1.794 4 4s-1.794 4-4 4H31c-1.103 0-2 .897-2 2z"/>
        <path d="M37.244 58H34.83l-17-6H13v-2h5.171l17 6h1.585l24.63-12.809c.274-.314.614-.842.614-1.19a2.003 2.003 0 0 0-1.862-1.996l-15.84 4.95-.596-1.91L60 37.998c2.206 0 4 1.795 4 4.002 0 1.37-1.16 2.572-1.292 2.705l-.247.18L37.244 58z"/>
        <path d="M12 54H0v-2h12V34H0v-2h12c1.103 0 2 .897 2 2v18a2.002 2.002 0 0 1-2 2"/>
        <path fill-rule="nonzero" d="M54.987 8.014c0 .006 0 .013.013.02V25.95c0 .332-.212.63-.531.777l-16.057 7.172c-.007.006-.007.006-.014.006a.324.324 0 0 1-.073.027c-.02 0-.026.007-.033.007-.026.006-.046.013-.073.02-.013 0-.02.006-.026.006-.027.007-.054.013-.08.013h-.027c-.026.007-.066.007-.1.007-.026 0-.066-.007-.099-.007h-.026c-.027-.006-.054-.006-.08-.013-.013 0-.02-.007-.027-.007-.026-.006-.046-.013-.073-.02-.02 0-.026-.006-.033-.006a.324.324 0 0 0-.073-.027c-.007-.006-.007-.006-.013-.006l-16.03-7.152c-.326-.146-.532-.445-.532-.777V8.014 7.98a.878.878 0 0 1 .531-.743L37.568.085c.253-.113.558-.113.817 0l15.878 7.092a.879.879 0 0 1 .63.458.86.86 0 0 1 .094.379zM37.967 1.81l-5.12 2.291 13.905 6.21 5.12-2.292-13.905-6.209zm0 12.418l6.64-2.962-13.905-6.209-6.64 2.962 13.905 6.21zM22.873 9.41v16.023l14.164 6.322V15.73L22.873 9.408zm16.03 22.345l14.211-6.355V9.375l-5.691 2.543v5.034c0 .478-.418.863-.936.863s-.937-.392-.937-.863v-4.19l-6.647 2.968v16.024z"/>
    </g>
</svg>
