<svg xmlns="http://www.w3.org/2000/svg" width="64" height="58" viewBox="0 0 64 58">
    <g fill="#F7931D" fill-rule="evenodd">
        <path d="M54 34h-2V15c0-2.757-2.243-5-5-5h-5V8h5c3.859 0 7 3.141 7 7v19zM12 34h-2V15c0-3.859 3.141-7 7-7h5v2h-5c-2.757 0-5 2.243-5 5v19zM24 54h16v-2H24zM31 36h2v-2h-2zM27 36h2v-2h-2zM35 36h2v-2h-2zM32 2c-3.028 0-4 1.094-4 4.5 0 2.666 1.402 5.5 4 5.5s4-2.834 4-5.5c0-3.406-.972-4.5-4-4.5m0 12c-3.421 0-6-3.225-6-7.5 0-3.026.682-6.5 6-6.5s6 3.474 6 6.5c0 4.275-2.579 7.5-6 7.5"/>
        <path d="M40 22H24c-1.626 0-3-1.832-3-4v-2.58l7.504-4.288.992 1.736L23 16.58V18c0 1.224.703 2 1 2h16c.297 0 1-.776 1-2v-1.42l-6.496-3.712.992-1.736L43 15.42V18c0 2.168-1.374 4-3 4M11 38c-3.028 0-4 1.094-4 4.5 0 2.666 1.402 5.5 4 5.5s4-2.834 4-5.5c0-3.406-.972-4.5-4-4.5m0 12c-3.421 0-6-3.225-6-7.5 0-3.026.682-6.5 6-6.5s6 3.474 6 6.5c0 4.275-2.579 7.5-6 7.5"/>
        <path d="M19 58H3c-1.626 0-3-1.832-3-4v-2.58l7.504-4.288.992 1.736L2 52.58V54c0 1.224.703 2 1 2h16c.297 0 1-.776 1-2v-1.42l-6.496-3.712.992-1.736L22 51.42V54c0 2.168-1.374 4-3 4M53 38c-3.028 0-4 1.094-4 4.5 0 2.666 1.402 5.5 4 5.5s4-2.834 4-5.5c0-3.406-.972-4.5-4-4.5m0 12c-3.421 0-6-3.225-6-7.5 0-3.026.682-6.5 6-6.5s6 3.474 6 6.5c0 4.275-2.579 7.5-6 7.5"/>
        <path d="M61 58H45c-1.626 0-3-1.832-3-4v-2.58l7.504-4.288.992 1.736L44 52.58V54c0 1.224.703 2 1 2h16c.297 0 1-.776 1-2v-1.42l-6.496-3.712.992-1.736L64 51.42V54c0 2.168-1.374 4-3 4"/>
    </g>
</svg>
