<svg xmlns="http://www.w3.org/2000/svg" width="60" height="60" viewBox="0 0 60 60">
    <g fill="none" fill-rule="evenodd">
        <path fill="#F7931D" d="M13.125 59.038H11.25V6.462h7.5v1.84h-5.625M50.625 59.038H41.25v-1.845h7.5V8.306h-5.625V6.462h7.5zM22.5 8.308h16.875V6.462h-4.688v-.924c0-2.14-1.577-3.692-3.75-3.692-2.172 0-3.75 1.553-3.75 3.692v.924H22.5v1.846zm18.75 1.846H20.625V4.615h4.759C25.804 1.928 28.052 0 30.937 0c2.886 0 5.134 1.928 5.554 4.615h4.759v5.539z"/>
        <path fill="#F7931D" d="M30 6.461h1.875V4.615H30zM15 55h1.875V7.384H15z"/>
        <path fill="#F7931D" d="M15 53h32v2H15zM45 41.538h1.875V7.384H45z"/>
        <path stroke="#F7931D" d="M21.5 19H25v-3.5h-3.5V19zM21.5 25H25v-3.5h-3.5V25zM21.5 31H25v-3.5h-3.5V31zM21.5 37H25v-3.5h-3.5V37z"/>
        <path fill="#F7931D" d="M28 17.846h13.25V16H28zM28 23.846h13.25V22H28zM28 29.846h13.25V28H28zM28 35.846h13.25V34H28zM21 41.846h20.25V40H21zM21 45.846h20.25V44H21zM21 49.846h20.25V48H21zM56.25 57.23h1.875V9.45l-.58-1.141h-.716l-.579 1.14v47.783zM60 59.078h-5.625V9.013l1.296-2.551h3.033L60 9.012v50.065z"/>
        <path fill="#F7931D" d="M56.25 7.384h1.875v-2.77H56.25zM55.313 15.692h3.75v-1.846h-3.75zM55.313 19.384h3.75v-1.846h-3.75zM55.313 23.076h3.75V21.23h-3.75zM55.313 55.384h3.75v-1.846h-3.75zM13 58.846h21V57H13zM36 58.846h1.875V57H36z"/>
    </g>
</svg>
