<svg xmlns="http://www.w3.org/2000/svg" width="61" height="63" viewBox="0 0 61 63">
    <g fill="#F7931D" fill-rule="evenodd">
        <path d="M33.52 32.124l19.412 6.283A23.035 23.035 0 0 0 54 31.5c0-2.39-.356-4.664-1.039-6.848L33.53 30.93a3.215 3.215 0 0 0-1.594-2.244l12.004-16.406A23.592 23.592 0 0 0 30.762 8v20.307a3.23 3.23 0 0 0-2.614.868L16.132 12.754c-3.71 2.805-6.589 6.672-8.132 11.13l19.441 6.276c-.19.409-.299.862-.299 1.34 0 .5.119.971.325 1.393L8.03 39.176a23.723 23.723 0 0 0 8.131 11.1l12.013-16.428c.58.537 1.353.87 2.203.87.131 0 .259-.01.385-.026V55a23.71 23.71 0 0 0 13.148-4.251L31.89 34.338a3.218 3.218 0 0 0 1.63-2.214"/>
        <path d="M55.473 23.548a.83.83 0 0 1-.142-.24c-.01-.036-.016-.072-.022-.108.056.116.11.232.164.348m3.562 16.106l-1.314-.428c.148-.537.287-1.079.405-1.628l-2.391-2.01c-2.123 12.398-13.15 21.954-25.708 21.954-14.371 0-25.986-11.66-25.986-26.017 0-14.358 11.615-26.016 25.986-26.016 12.577 0 23.188 8.997 26 21.914l2.111-1.915c-.115-.54-.25-1.073-.394-1.602l1.29-.42a1.313 1.313 0 0 0 .86-1.632c-.237-.682-.978-1.068-1.659-.83l-1.286.419a28.866 28.866 0 0 0-8.983-12.417l.787-1.084c.415-.564.296-1.395-.267-1.81h-.03a1.288 1.288 0 0 0-1.807.297l-.776 1.07a28.528 28.528 0 0 0-14.572-4.75V1.325c0-.712-.564-1.275-1.274-1.275-.712 0-1.304.563-1.304 1.275v1.425a28.59 28.59 0 0 0-14.57 4.744l-.838-1.156c-.415-.563-1.245-.711-1.808-.267-.592.416-.71 1.217-.296 1.81l.836 1.152A28.857 28.857 0 0 0 3.069 21.44l-1.37-.446a1.272 1.272 0 0 0-1.629.83 1.274 1.274 0 0 0 .83 1.632l1.375.448a28.881 28.881 0 0 0-1.02 7.62c0 2.67.364 5.252 1.042 7.705L.9 39.683a1.273 1.273 0 0 0-.83 1.631c.208.683.948 1.039 1.63.831l1.4-.455a28.857 28.857 0 0 0 8.988 12.36l-.877 1.207c-.415.593-.296 1.394.296 1.81.563.445 1.393.297 1.808-.267l.882-1.216a28.593 28.593 0 0 0 14.526 4.715v1.425c0 .712.592 1.276 1.304 1.276.71 0 1.274-.564 1.274-1.276V60.3a28.528 28.528 0 0 0 14.528-4.72l.82 1.13a1.323 1.323 0 0 0 1.837.296c.563-.415.682-1.246.267-1.809l-.828-1.141a28.863 28.863 0 0 0 8.994-12.37l1.316.429c.681.237 1.422-.148 1.659-.831a1.313 1.313 0 0 0-.86-1.631"/>
        <path d="M60.214 26L55 31.469 60.214 37c.495-1.752.786-3.595.786-5.531 0-1.905-.29-3.717-.786-5.469"/>
    </g>
</svg>
