<svg xmlns="http://www.w3.org/2000/svg" width="40" height="40" viewBox="0 0 40 40"><defs><style>.cls-1{fill:#4353ff;}</style></defs><title>ab</title><g id="Layer_2" data-name="Layer 2"><g id="Layer_1-2" data-name="Layer 1"><path class="cls-1" d="M39,0H31.88a.58.58,0,0,0-.59.59h0a.58.58,0,0,0,.59.58h7V3.36H1.17V1.17H27.64a.58.58,0,0,0,.58-.58A.58.58,0,0,0,27.64,0H1A1,1,0,0,0,0,1V3.55a1,1,0,0,0,1,1H1.2V22a.59.59,0,1,0,1.17,0h0V4.53H37.63v24.8H2.37V26.19a.59.59,0,1,0-1.17,0h0v3.33a1,1,0,0,0,1,1H14V31a2.54,2.54,0,0,0,2.54,2.54h2.86v3.33a1.64,1.64,0,1,0,1.18,0V33.51h2.87A2.54,2.54,0,0,0,26,31V30.5H37.83a1,1,0,0,0,1-1v-25H39a1,1,0,0,0,1-1V1A1,1,0,0,0,39,0ZM20,38.82a.46.46,0,0,1-.46-.46.46.46,0,0,1,.92,0,.46.46,0,0,1-.46.46ZM24.82,31a1.37,1.37,0,0,1-1.37,1.37H16.54A1.36,1.36,0,0,1,15.18,31V30.5h9.64V31Z"/><path class="cls-1" d="M32.78,14.75a1.49,1.49,0,0,0-1.49,1.49.61.61,0,0,0,0,.14l-3.62,2.51a1.44,1.44,0,0,0-.87-.29,1.49,1.49,0,0,0-1.49,1.49.41.41,0,0,0,0,.11l-5.22,2.88a1.43,1.43,0,0,0-.64-.15,1.51,1.51,0,0,0-1.16.56l-3.91-.91a1.49,1.49,0,0,0-3,.27.86.86,0,0,0,0,.23L7.94,25.46a1.51,1.51,0,0,0-.72-.18,1.49,1.49,0,1,0,1.49,1.49,1.44,1.44,0,0,0-.05-.37l3.43-2.32a1.47,1.47,0,0,0,2.05-.35l3.86.89a1.49,1.49,0,0,0,3-.2A1.61,1.61,0,0,0,20.9,24l5-2.74a1.51,1.51,0,0,0,.95.34,1.49,1.49,0,0,0,1.49-1.49,1.41,1.41,0,0,0,0-.2l3.57-2.47a1.49,1.49,0,1,0,.92-2.67ZM7.22,27.08a.32.32,0,1,1,0-.63.32.32,0,1,1,0,.63Zm5.72-3.91a.32.32,0,1,1,0-.63.32.32,0,0,1,0,.63Zm6.53,1.57a.32.32,0,1,1,.32-.32A.31.31,0,0,1,19.47,24.74Zm7.34-4.33a.32.32,0,1,1,.32-.32A.31.31,0,0,1,26.81,20.41Zm6-3.85a.32.32,0,1,1,0-.63.32.32,0,1,1,0,.63ZM11,5.88a5.09,5.09,0,0,0-1.8.34l0,0A5,5,0,0,0,6,10.37v0a1.34,1.34,0,0,0,0,.2v.29a5,5,0,0,0,1.52,3.59l.05,0A5,5,0,1,0,11,5.88ZM7.19,11.3c0-.07,0-.13,0-.19v0a1.28,1.28,0,0,1,0-.19h0a1.55,1.55,0,0,1,0-.22v-.08c0-.05,0-.1,0-.14s0-.07,0-.11,0-.07,0-.1A3.86,3.86,0,0,1,9.07,7.58l1.37,3.17L8,13.21a3.88,3.88,0,0,1-.76-1.91ZM11,14.72A3.79,3.79,0,0,1,8.8,14l2.56-2.53a1,1,0,0,0,.21-1.09l-1.4-3.25A3.83,3.83,0,1,1,11,14.72Zm23.26-8H23.84a.59.59,0,0,0-.59.59.6.6,0,0,0,.59.59H34.26a.6.6,0,0,0,.59-.59.59.59,0,0,0-.59-.59ZM29.64,8.67h-5.8a.6.6,0,0,0-.59.59h0a.59.59,0,0,0,.59.59h5.8a.58.58,0,0,0,.58-.59.59.59,0,0,0-.58-.59Zm4.62,3.19H23.84a.59.59,0,0,0-.59.58h0a.59.59,0,0,0,.59.59H34.26a.59.59,0,0,0,.59-.59.58.58,0,0,0-.59-.58Zm-4.62,1.91h-5.8a.59.59,0,0,0-.59.58h0a.59.59,0,0,0,.59.59h5.8a.58.58,0,0,0,.58-.59h0a.58.58,0,0,0-.58-.58Zm-8.46-7H19.57a1,1,0,0,0-1,1V9.35a1,1,0,0,0,1,1h1.61a1,1,0,0,0,1-1V7.74A1,1,0,0,0,21.18,6.76ZM21,9.16H19.77V7.94H21Zm.19,2.7H19.57a1,1,0,0,0-1,1v1.62a1,1,0,0,0,1,1h1.61a1,1,0,0,0,1-1V12.83A1,1,0,0,0,21.18,11.86ZM21,14.25H19.77V13H21Z"/></g></g></svg>