<svg xmlns="http://www.w3.org/2000/svg" width="40" height="37.38" viewBox="0 0 40 37.38"><defs><style>.cls-1{fill:#4353ff;}</style></defs><title>editor</title><g id="Layer_2" data-name="Layer 2"><g id="Layer_1-2" data-name="Layer 1"><path class="cls-1" d="M4.81,4.48l0-.11-.06-.11a.27.27,0,0,0-.07-.08L4.56,4.1l-.1,0a.23.23,0,0,0-.11,0,.45.45,0,0,0-.23,0,.23.23,0,0,0-.11,0l-.1,0-.09.08a.27.27,0,0,0-.07.08l-.06.11,0,.11a.45.45,0,0,0,0,.23l0,.11.06.1L3.82,5l.09.07.1,0,.11,0h.12a.59.59,0,0,0,.22,0,.54.54,0,0,0,.26-.21l.06-.1,0-.11a.49.49,0,0,0,0-.12A.37.37,0,0,0,4.81,4.48Zm2.29,0a.35.35,0,0,0,0-.11L7,4.26l-.08-.08a.24.24,0,0,0-.09-.08.31.31,0,0,0-.1,0,.2.2,0,0,0-.11,0,.45.45,0,0,0-.23,0l-.11,0-.1,0-.09.08L6,4.26a.54.54,0,0,0,0,.11.36.36,0,0,0,0,.11s0,.07,0,.11,0,.08,0,.12a.76.76,0,0,0,0,.11l0,.1L6.11,5l.09.07.1,0a.64.64,0,0,0,.23,0h.11l.11,0a.31.31,0,0,0,.1,0A.35.35,0,0,0,6.94,5L7,4.92a.93.93,0,0,1,.05-.1.61.61,0,0,0,0-.11.5.5,0,0,0,0-.12A.36.36,0,0,0,7.1,4.48Zm2.3,0a.36.36,0,0,0,0-.11.54.54,0,0,0,0-.11l-.07-.08A.55.55,0,0,0,8.94,4a.57.57,0,0,0-.53.16l-.08.08a.54.54,0,0,0-.05.11.35.35,0,0,0,0,.11.45.45,0,0,0,0,.23.61.61,0,0,0,0,.11l.05.1L8.41,5a.35.35,0,0,0,.09.07l.1,0,.11,0h.23l.11,0,.1,0L9.24,5l.07-.09,0-.1a.76.76,0,0,0,0-.11A.88.88,0,0,0,9.4,4.48Z"/><path class="cls-1" d="M40,26.75V5.38A3.28,3.28,0,0,0,36.72,2.1H28.11V1a1,1,0,0,0-1-1H20.8a1,1,0,0,0-1,1V2.1H16.59L15.86.78a.6.6,0,0,0-.8-.23.72.72,0,0,0-.23.23L14.1,2.1H3.28A3.28,3.28,0,0,0,0,5.38V26.75H0v.12a3.28,3.28,0,0,0,3.28,3.28H16.75v3.26H12.42a1,1,0,0,0-1,1v2a1,1,0,0,0,1,1h2.11a.59.59,0,1,0,0-1.17H12.61V34.59H27.39v1.62H18.78a.59.59,0,0,0,0,1.17h8.81a1,1,0,0,0,1-1v-2a1,1,0,0,0-1-1H23.25V30.16H36.72A3.28,3.28,0,0,0,40,26.88v-.12ZM28.11,7H36V23.38H28.11Zm-7.7.82A.59.59,0,0,0,21,7.2h0v-6h6v1h-1a.59.59,0,0,0-.59.59h0a.59.59,0,0,0,.59.59h1v.73h-1a.58.58,0,0,0-.59.59h0a.58.58,0,0,0,.59.58h1V6h-1a.58.58,0,0,0-.59.58h0a.58.58,0,0,0,.59.59h1v.73h-1a.59.59,0,0,0-.59.59h0a.59.59,0,0,0,.59.59h1v.73h-1a.58.58,0,0,0-.59.59h0a.58.58,0,0,0,.59.58h1v.74h-1a.59.59,0,1,0,0,1.17h1.05v.74h-1a.58.58,0,0,0-.59.58h0a.58.58,0,0,0,.59.59h1v.73h-1a.59.59,0,0,0-.59.59h0a.59.59,0,0,0,.59.59h1v.73h-1a.58.58,0,0,0-.59.59h0a.58.58,0,0,0,.59.58h1v.74h-1a.58.58,0,0,0-.59.58h0a.58.58,0,0,0,.59.59h1v.73h-1a.59.59,0,0,0-.59.59h0a.59.59,0,0,0,.59.59h1v1H21v-12a.59.59,0,0,0-.58-.59h0a.59.59,0,0,0-.59.59h0v12h-1V7h1V7.2a.59.59,0,0,0,.59.59Zm-.59-4.51V5.8H18.64l-1.4-2.52ZM14.53,22.7h3.1v.68H13.06V22.7Zm-1.47-1.17V6.82H14V21.53Zm2.06,0V6.82h.45V21.53Zm1.63,0V6.82h.88V21.53ZM15.35,2.27l.43.8h-.87Zm-1.09,2h2.17l.79,1.41H13.47Zm7.81,29.18H17.93V30.19h4.14Zm16.7-6.05a1,1,0,0,1,0,.14v0s0,.08,0,.12l0,0-.06.13a.83.83,0,0,1-.09.16l0,0a.76.76,0,0,1-.08.11v0l-.09.11,0,0-.13.13a.52.52,0,0,1-.11.1l0,0-.12.08h0l-.13.08,0,0-.13.07h0l-.14.06h0l-.14.05h0l-.19,0-.15,0H3.08L2.9,29l-.16,0h0l-.14-.05h0l-.14-.06h0l-.13-.07,0,0-.13-.08h0L2,28.53l0,0-.14-.12-.1-.11,0,0-.09-.11v0A.76.76,0,0,1,1.51,28l0,0a.75.75,0,0,1-.07-.12l0,0-.06-.13v0a.61.61,0,0,1-.05-.12v0a1,1,0,0,1,0-.17H38.78v0Zm.06-1.2H1.17V5.38a2.11,2.11,0,0,1,2.11-2.1H13.45L12.05,5.8H3.82a1,1,0,0,0-1,1V23.54a1,1,0,0,0,1,1H36.19a1,1,0,0,0,1-1V6.81a1,1,0,0,0-1-1H28.11V3.28h8.61a2.11,2.11,0,0,1,2.11,2.1V26.17ZM11.89,7V23.38H4V7Z"/></g></g></svg>