<svg xmlns="http://www.w3.org/2000/svg" width="40" height="40" viewBox="0 0 40 40">
    <path fill="#4353FF" fill-rule="nonzero" d="M39.945 17.177a.728.728 0 0 1-.158.792l-8.727 8.727a.725.725 0 0 1-1.028 0 .726.726 0 0 1 0-1.028l7.486-7.486H26.182v16a.727.727 0 0 1-.727.727h-8v4.364a.726.726 0 0 1-.947.694l-16-5.091c-.013-.005-.022-.013-.035-.018-.029-.01-.053-.026-.08-.04a.72.72 0 0 1-.206-.16.7.7 0 0 1-.096-.143c-.013-.026-.028-.048-.039-.075A.717.717 0 0 1 0 34.182V.727C0 .64.02.553.05.472.058.457.06.442.068.428A.757.757 0 0 1 .2.23C.212.217.225.207.238.196.258.177.276.156.298.14.316.127.338.127.358.115A.707.707 0 0 1 .546.036C.585.026.62.016.661.013.684.011.704 0 .727 0h24.728c.402 0 .727.325.727.727v16h11.336l-7.486-7.486a.726.726 0 1 1 1.028-1.028l8.727 8.726c.067.068.12.148.158.238zM1.209 1.699v31.934l14.949 4.876V6.426L1.208 1.699zm23.519 31.756v-32H5.412l11.536 3.67a.727.727 0 0 1 .507.693v27.637h7.273zM12.184 20.573l2.176.542a.75.75 0 0 1-.363 1.455l-2.176-.542a.75.75 0 0 1 .363-1.455z"/>
</svg>
