<svg xmlns="http://www.w3.org/2000/svg" width="26" height="40" viewBox="0 0 26 40">
    <g fill="#4353FF" fill-rule="nonzero">
        <path d="M22.591 0H3.41C1.529 0 0 1.513 0 3.374v33.252C0 38.486 1.53 40 3.409 40H22.59C24.471 40 26 38.487 26 36.626V3.374C26 1.514 24.47 0 22.591 0zM3.41 1.354H22.59c1.125 0 2.04.906 2.04 2.02V6.14H1.369V3.374c0-1.114.916-2.02 2.04-2.02zm21.223 6.14v25.012H1.368V7.494h23.264zm-2.04 31.152H3.408a2.032 2.032 0 0 1-2.04-2.02V33.86h23.263v2.766c0 1.114-.916 2.02-2.04 2.02z"/>
        <path d="M10.08 4.424h5.84a.68.68 0 0 0 .684-.677.68.68 0 0 0-.685-.677h-5.838a.68.68 0 0 0-.685.677.68.68 0 0 0 .685.677zM13 34.185a2.045 2.045 0 0 0-2.053 2.032c0 1.12.921 2.031 2.053 2.031a2.045 2.045 0 0 0 2.053-2.031c0-1.12-.921-2.032-2.053-2.032zm0 2.709a.681.681 0 0 1-.684-.677c0-.374.307-.677.684-.677.377 0 .684.303.684.677a.681.681 0 0 1-.684.677zM3.627 31.151H6.5a.68.68 0 0 0 .684-.677V24.38a.68.68 0 0 0-.684-.678H3.627a.68.68 0 0 0-.684.678v6.094a.68.68 0 0 0 .684.677zm.684-6.094h1.505v4.74H4.311v-4.74zM8.918 31.151h2.873a.68.68 0 0 0 .684-.677V19.73a.68.68 0 0 0-.684-.677H8.918a.68.68 0 0 0-.684.677v10.744a.68.68 0 0 0 .684.677zm.684-10.744h1.505v9.39H9.602v-9.39zM14.209 31.151h2.873a.68.68 0 0 0 .684-.677V15.08a.68.68 0 0 0-.684-.677H14.21a.68.68 0 0 0-.685.677v15.394a.68.68 0 0 0 .685.677zm.684-15.394h1.505v14.04h-1.505v-14.04zM19.5 31.151h2.873a.68.68 0 0 0 .684-.677V10.43a.68.68 0 0 0-.684-.677H19.5a.68.68 0 0 0-.685.677v20.044a.68.68 0 0 0 .685.677zm.684-20.044h1.505v18.69h-1.505v-18.69z"/>
    </g>
</svg>
