<svg xmlns="http://www.w3.org/2000/svg" width="40" height="40" viewBox="0 0 40 40"><defs><style>.cls-1{fill:#4353ff;}</style></defs><title>real-time</title><g id="Layer_2" data-name="Layer 2"><g id="Layer_1-2" data-name="Layer 1"><path class="cls-1" d="M39.44,11.69,28.31.56A1.92,1.92,0,0,0,27,0,1.91,1.91,0,0,0,25,1.91a1.87,1.87,0,0,0,.42,1.2L2.36,26.2A8.09,8.09,0,0,0,13.8,37.63L36.89,14.54a1.93,1.93,0,0,0,1.2.42,1.92,1.92,0,0,0,1.35-3.27Zm-.9,1.81a.64.64,0,0,1-.45.19.66.66,0,0,1-.46-.19l-.2-.2a.71.71,0,0,0-.2-.2L30.41,6.28a.64.64,0,0,0-.9.9L36,13.65,12.9,36.73A6.81,6.81,0,0,1,3.27,27.1L26.35,4l1.37,1.35a.64.64,0,0,0,.91-.9h0L26.9,2.76a.69.69,0,0,0-.19-.19l-.21-.2a.66.66,0,0,1-.19-.46.64.64,0,0,1,.19-.45.65.65,0,0,1,.9,0L38.54,12.6a.63.63,0,0,1,0,.9Z"/><path class="cls-1" d="M23.65,23.27a2.57,2.57,0,0,0-1.51-.74,1.31,1.31,0,0,1-.83-.39,1.25,1.25,0,0,1-.38-.82,2.6,2.6,0,0,0-2.25-2.25,1.28,1.28,0,0,1-.83-.39,1.25,1.25,0,0,1-.38-.82,2.55,2.55,0,0,0-.74-1.51.65.65,0,0,0-.91,0h0L10.9,21.27a.64.64,0,0,0,.9.91l4.36-4.36c0,.08,0,.17.05.26a2.6,2.6,0,0,0,2.25,2.25,1.25,1.25,0,0,1,.82.38,1.31,1.31,0,0,1,.39.83,2.6,2.6,0,0,0,2.25,2.25l.26.05L11.09,34.92a4.25,4.25,0,0,1-6,0,4.25,4.25,0,0,1,0-6L10,24a.64.64,0,0,0-.91-.9L4.17,28A5.53,5.53,0,0,0,12,35.83L23.61,24.21a.64.64,0,0,0,.06-.91Zm5.19-9.55a.63.63,0,0,0,0,.9h0a.65.65,0,0,1,0,.91.63.63,0,0,1-.45.18.65.65,0,0,1-.46-.18.67.67,0,0,1,0-.91.63.63,0,0,0,0-.9.63.63,0,0,0-.9,0h0a1.92,1.92,0,1,0,2.71,0,.63.63,0,0,0-.9,0Zm-7.53,3.42a1.92,1.92,0,0,0,1.36-3.27.63.63,0,0,0-.9,0,.63.63,0,0,0,0,.9h0a.63.63,0,0,1,.18.45.62.62,0,0,1-.64.64.63.63,0,0,1-.45-.18.65.65,0,0,1-.18-.46.63.63,0,0,1,.18-.45.64.64,0,0,0-.9-.9,1.92,1.92,0,0,0,1.35,3.27Z"/></g></g></svg>