<svg xmlns="http://www.w3.org/2000/svg" width="40" height="40" viewBox="0 0 40 40"><defs><style>.cls-1{fill:#4353ff;}</style></defs><title>Asset 1</title><g id="Layer_2" data-name="Layer 2"><g id="Layer_1-2" data-name="Layer 1"><path class="cls-1" d="M36.74,9.08l2.92-2.92a1,1,0,0,0,.19-1.11,1,1,0,0,0-1-.56l-3.78.37.36-3.78a1,1,0,0,0-.55-1,1,1,0,0,0-1.12.19L30.85,3.22A20,20,0,0,0,2.67,30a.59.59,0,0,0,.8.22h0a.6.6,0,0,0,.22-.81A18.81,18.81,0,0,1,30,4.08l-2,2a1,1,0,0,0-.28.79l.1,1A14.28,14.28,0,0,0,20,5.59a14.42,14.42,0,1,0,12.09,6.53l1,.1a1,1,0,0,0,.79-.28l2-2A18.69,18.69,0,0,1,38.82,20a19.05,19.05,0,0,1-.15,2.39.59.59,0,1,0,1.17.15h0A19.58,19.58,0,0,0,40,20,19.78,19.78,0,0,0,36.74,9.08ZM33.26,20A13.26,13.26,0,1,1,20,6.77a13.13,13.13,0,0,1,8,2.66l.15,1.51h0l-2.27,2.3a9,9,0,1,0,.84.83l2.23-2.26H29l1.54.15v0a13.13,13.13,0,0,1,2.71,8Zm-13.67.42a.57.57,0,0,0,.41.17.58.58,0,0,0,.42-.17l2.27-2.3a3.28,3.28,0,1,1-.84-.83l-2.27,2.3a.58.58,0,0,0,0,.83Zm3.09-4a4.48,4.48,0,1,0,.84.83l2.34-2.37A7.7,7.7,0,0,1,27.78,20,7.79,7.79,0,1,1,25,14.08l-2.34,2.37ZM33.11,11l-3.79-.37-.05-.05L28.9,6.83l5.33-5.32L33.89,5h0a1,1,0,0,0,.28.79,1,1,0,0,0,.79.29l3.48-.34Z"/><path class="cls-1" d="M38.52,25.88a.6.6,0,0,0-.76.36A18.81,18.81,0,0,1,6.1,32.69a.59.59,0,0,0-.87.8A20,20,0,0,0,20,40,20,20,0,0,0,38.88,26.63a.6.6,0,0,0-.36-.75Z"/></g></g></svg>