<?xml version="1.0" encoding="UTF-8"?>
<svg width="100px" height="15px" viewBox="0 0 100 15" version="1.1" xmlns="http://www.w3.org/2000/svg" xmlns:xlink="http://www.w3.org/1999/xlink">
    <!-- Generator: Sketch 49.3 (51167) - http://www.bohemiancoding.com/sketch -->
    <title>logo-horizontal</title>
    <desc>Created with Sketch.</desc>
    <defs></defs>
    <g id="Page-1" stroke="none" stroke-width="1" fill="none" fill-rule="evenodd" opacity="0.399456522">
        <g id="agency-landing" transform="translate(-392.000000, -20.000000)" fill="#888888">
            <g id="banner">
                <g id="logo-horizontal" transform="translate(392.000000, 12.000000)">
                    <g transform="translate(-20.000000, 0.000000)" id="Shape">
                        <path d="M26.9058296,8.532 C22.9237668,8.532 20.1793722,11.394 20.1793722,15.66 C20.1793722,19.926 22.8699552,22.788 26.9058296,22.788 C30.941704,22.788 33.632287,19.926 33.632287,15.66 C33.632287,11.394 30.941704,8.532 26.9058296,8.532 Z M26.9058296,19.116 C24.9686099,19.116 24.2690583,17.334 24.2690583,15.66 C24.2690583,13.986 24.9686099,12.204 26.9058296,12.204 C28.8430493,12.204 29.5426009,13.986 29.5426009,15.66 C29.5426009,17.334 28.8430493,19.116 26.9058296,19.116 Z" fill-rule="nonzero"></path>
                        <path d="M40.6278027,8.802 L37.0762332,8.802 C36.5579887,8.78691624 36.0564675,8.98688228 35.6898592,9.35477372 C35.3232509,9.72266517 35.1239823,10.2259416 35.1390135,10.746 L35.1390135,20.574 C35.1390135,21.6476416 36.0063363,22.518 37.0762332,22.518 C38.1461301,22.518 39.0134529,21.6476416 39.0134529,20.574 L39.0134529,18.414 L40.6816143,18.414 C43.5874439,18.414 45.4170404,16.524 45.4170404,13.608 C45.4170404,10.692 42.941704,8.802 40.6278027,8.802 Z M41.4887892,13.608 C41.4918515,13.967489 41.3395396,14.3106735 41.0712129,14.5488702 C40.8028862,14.787067 40.4448721,14.8969047 40.0896861,14.85 L39.0134529,14.85 L39.0134529,12.366 L40.0358744,12.366 C40.6816143,12.366 41.4887892,12.582 41.4887892,13.608 Z" fill-rule="nonzero"></path>
                        <path d="M53.7578475,8.802 L47.6233184,8.802 C46.3856502,8.802 45.632287,9.504 45.632287,10.638 C45.632287,11.772 46.4394619,12.474 47.6233184,12.474 L48.7533632,12.474 L48.7533632,20.574 C48.7533632,21.6476416 49.620686,22.518 50.690583,22.518 C51.7604799,22.518 52.6278027,21.6476416 52.6278027,20.574 L52.6278027,12.474 L53.7578475,12.474 C54.941704,12.474 55.7488789,11.772 55.7488789,10.638 C55.7488789,9.504 54.9955157,8.802 53.7578475,8.802 Z" fill-rule="nonzero"></path>
                        <path d="M59.0852018,8.694 C58.5471378,8.67655239 58.0273526,8.89099593 57.6571088,9.28317665 C57.286865,9.67535737 57.1015574,10.2077835 57.1479821,10.746 L57.1479821,20.574 C57.1479821,21.6476416 58.0153049,22.518 59.0852018,22.518 C60.1550987,22.518 61.0224215,21.6476416 61.0224215,20.574 L61.0224215,10.746 C61.0688462,10.2077835 60.8835386,9.67535737 60.5132948,9.28317665 C60.143051,8.89099593 59.6232658,8.67655239 59.0852018,8.694 Z" fill-rule="nonzero"></path>
                        <path d="M77.058296,10.962 C76.735426,9.018 75.3901345,8.748 74.690583,8.748 C72.8071749,8.748 72.4304933,10.044 71.7309417,12.204 L70.7623318,15.12 L69.793722,12.15 C69.0941704,9.99 68.6636771,8.694 66.8340807,8.694 C66.0807175,8.694 64.7892377,8.964 64.4663677,10.908 L63.2825112,17.442 C63.0642609,18.5308289 62.9026074,19.6303149 62.7982063,20.736 C62.7977901,21.7590884 63.6086987,22.596769 64.6278027,22.626 C66.4573991,22.626 66.6726457,21.06 66.7802691,20.304 L67.3183857,16.74 L68.6098655,21.006 C68.9865471,22.14 69.5784753,22.68 70.6547085,22.68 C71.7309417,22.68 72.3766816,22.194 72.6995516,21.006 L73.9910314,16.74 L74.529148,20.304 C74.6367713,21.06 74.8520179,22.626 76.6816143,22.626 C77.7007183,22.596769 78.511627,21.7590884 78.5112108,20.736 C78.4067133,19.6303266 78.2450606,18.5308456 78.0269058,17.442 L77.058296,10.962 Z" fill-rule="nonzero"></path>
                        <path d="M86.4753363,8.532 C82.4394619,8.532 79.7488789,11.394 79.7488789,15.66 C79.7488789,19.926 82.4394619,22.788 86.4753363,22.788 C90.5112108,22.788 93.2017937,19.926 93.2017937,15.66 C93.2017937,11.394 90.5112108,8.532 86.4753363,8.532 Z M86.4753363,19.116 C84.5381166,19.116 83.838565,17.334 83.838565,15.66 C83.838565,13.986 84.5381166,12.204 86.4753363,12.204 C88.4125561,12.204 89.1121076,13.986 89.1121076,15.66 C89.1121076,17.334 88.4125561,19.116 86.4753363,19.116 Z" fill-rule="nonzero"></path>
                        <path d="M104.878924,8.694 C104.34086,8.67655239 103.821075,8.89099593 103.450831,9.28317665 C103.080587,9.67535737 102.895279,10.2077835 102.941704,10.746 L102.941704,15.39 L99.0134529,10.422 C97.9910314,9.18 97.6143498,8.694 96.6457399,8.694 C96.1076759,8.67655239 95.5878907,8.89099593 95.2176469,9.28317665 C94.8474031,9.67535737 94.6620955,10.2077835 94.7085202,10.746 L94.7085202,20.574 C94.7085201,21.2685243 95.0777521,21.9102913 95.67713,22.2575535 C96.2765079,22.6048157 97.0149719,22.6048157 97.6143498,22.2575535 C98.2137277,21.9102913 98.5829597,21.2685243 98.5829596,20.574 L98.5829596,15.93 L102.511211,20.844 C103.426009,22.032 103.856502,22.572 104.878924,22.572 C105.416988,22.5894476 105.936773,22.3750041 106.307017,21.9828233 C106.677261,21.5906426 106.862568,21.0582165 106.816143,20.52 L106.816143,10.746 C106.862568,10.2077835 106.677261,9.67535737 106.307017,9.28317665 C105.936773,8.89099593 105.416988,8.67655239 104.878924,8.694 Z" fill-rule="nonzero"></path>
                        <path d="M118.923767,18.954 L115.479821,15.228 L118.600897,12.096 C119.016897,11.6993894 119.26699,11.1588408 119.300448,10.584 C119.244657,9.54344865 118.401311,8.72065862 117.363229,8.694 C116.673823,8.6975983 116.030147,9.04074786 115.641256,9.612 L112.520179,12.96 L112.520179,10.746 C112.520179,9.67235845 111.652857,8.802 110.58296,8.802 C109.513063,8.802 108.64574,9.67235845 108.64574,10.746 L108.64574,20.574 C108.64574,21.6476416 109.513063,22.518 110.58296,22.518 C111.652857,22.518 112.520179,21.6476416 112.520179,20.574 L112.520179,17.712 L115.748879,21.384 C116.233184,21.924 116.878924,22.626 117.793722,22.626 C118.321093,22.6565336 118.837001,22.4634156 119.21561,22.0937499 C119.594219,21.7240842 119.800723,21.2118546 119.784753,20.682 C119.838565,19.98 119.408072,19.494 118.923767,18.954 Z" fill-rule="nonzero"></path>
                    </g>
                </g>
            </g>
        </g>
    </g>
</svg>