<svg xmlns="http://www.w3.org/2000/svg" width="98.81" height="28.23" viewBox="0 0 98.81 28.23"><defs><style>.cls-1{fill:#96bf47;}.cls-2{fill:#5f8f3e;}.cls-3{fill:#fff;}.cls-4{fill:#231f20;}</style></defs><title>shopify-logo</title><g id="Layer_2" data-name="Layer 2"><g id="Layer_1-2" data-name="Layer 1"><path class="cls-1" d="M9.06,9.16H9a.58.58,0,0,1-.5-.53c0-.26-.16-6.23,3.34-7.59a2.43,2.43,0,0,1,2.39.23A5.59,5.59,0,0,1,16,4.76a14.28,14.28,0,0,1,.3,2.31.38.38,0,0,1-.46.4.59.59,0,0,1-.5-.53c0-1.09-.42-4.08-1.63-4.94a1.42,1.42,0,0,0-1.44-.07c-3,1.16-2.86,6.77-2.86,6.82A.38.38,0,0,1,9.06,9.16Z"/><path class="cls-1" d="M16.53,3.28,3,7.48a2.12,2.12,0,0,0-.72.33,1.54,1.54,0,0,0-.18.66L0,24.62l15.72,2.94L16.93,3.27A1.17,1.17,0,0,0,16.53,3.28Z"/><path class="cls-2" d="M21.23,5.37a.35.35,0,0,0-.1-.17.46.46,0,0,0-.15,0L18.77,5,17.13,3.36a.52.52,0,0,0-.2-.09L15.72,27.56l8.51-1.84Z"/><path class="cls-3" d="M10.94,16.78a5.15,5.15,0,0,0-.82-.86,7.65,7.65,0,0,0-.9-.66,4.36,4.36,0,0,1-.55-.39,2.33,2.33,0,0,1-.39-.37,1.2,1.2,0,0,1-.22-.37A1.07,1.07,0,0,1,8,13.74a1.2,1.2,0,0,1,.41-.88,1.56,1.56,0,0,1,.46-.25,1.83,1.83,0,0,1,.6-.12,3.92,3.92,0,0,1,.69,0,4.06,4.06,0,0,1,.64.11,4,4,0,0,1,.55.17l.44.18,1.05-3.12a3.11,3.11,0,0,0-.57-.21,3.61,3.61,0,0,0-.73-.15,7.48,7.48,0,0,0-.85-.05,7.94,7.94,0,0,0-.95.06,6.23,6.23,0,0,0-1.93.58,4.86,4.86,0,0,0-1.42,1.05,4.74,4.74,0,0,0-.9,1.43,5,5,0,0,0-.37,1.76,3.61,3.61,0,0,0,.1,1.06,3.13,3.13,0,0,0,.38.9,4.44,4.44,0,0,0,.59.78,6.27,6.27,0,0,0,.77.67,4.76,4.76,0,0,1,.56.46,2.42,2.42,0,0,1,.38.44,1.42,1.42,0,0,1,.26.91A1.11,1.11,0,0,1,8,20a.92.92,0,0,1-.26.35,1.17,1.17,0,0,1-.42.2,1.48,1.48,0,0,1-.56,0,3,3,0,0,1-.7-.19,6.67,6.67,0,0,1-.66-.31q-.32-.18-.57-.36a4.31,4.31,0,0,1-.43-.34l-.72,2.39a3.18,3.18,0,0,0,.45.45,4.08,4.08,0,0,0,.61.42,5.49,5.49,0,0,0,.77.37,5.92,5.92,0,0,0,.87.29h.06a5.44,5.44,0,0,0,1.87.1A3.74,3.74,0,0,0,10,22.77a3.54,3.54,0,0,0,1.19-1.37,5.22,5.22,0,0,0,.52-2.13,3.81,3.81,0,0,0-.19-1.38A3.91,3.91,0,0,0,10.94,16.78Z"/><path class="cls-1" d="M5.75,8.34H5.69a.49.49,0,0,1-.41-.54c0-.25.94-6.22,4.68-7.58a2.29,2.29,0,0,1,2.35.23c.73.59,1.14,1.77,1.2,3.49a13.75,13.75,0,0,1-.1,2.31.47.47,0,1,1-.94-.13c.15-1.08.3-4.07-.76-4.93a1.4,1.4,0,0,0-1.43-.08c-3.2,1.17-4,6.77-4.06,6.83A.47.47,0,0,1,5.75,8.34Z"/><path class="cls-4" d="M34.16,15.71c-.85-.46-1.28-.85-1.28-1.38,0-.68.6-1.12,1.55-1.12a5.06,5.06,0,0,1,2.09.46l.77-2.38a6,6,0,0,0-2.81-.56c-2.94,0-4.95,1.68-4.95,4a3.7,3.7,0,0,0,2.2,3.08c1,.59,1.39,1,1.39,1.61s-.51,1.14-1.46,1.14a6.27,6.27,0,0,1-2.74-.73l-.83,2.38a6.67,6.67,0,0,0,3.3.82c3,0,5.17-1.48,5.17-4.15C36.56,17.48,35.47,16.46,34.16,15.71Z"/><path class="cls-4" d="M46.15,10.71a4.51,4.51,0,0,0-3.54,1.77l0,0,1.28-6.72H40.49l-3.25,17.1h3.35L41.71,17c.43-2.2,1.58-3.56,2.64-3.56.76,0,1,.51,1,1.24a7.51,7.51,0,0,1-.15,1.48L44,22.84h3.35l1.31-6.91a13,13,0,0,0,.24-2.19C48.89,11.85,47.9,10.71,46.15,10.71Z"/><path class="cls-4" d="M56.46,10.71c-4,0-6.7,3.64-6.7,7.69a4.38,4.38,0,0,0,4.62,4.69c3.95,0,6.62-3.55,6.62-7.7A4.35,4.35,0,0,0,56.46,10.71Zm-1.65,9.8c-1.14,0-1.62-1-1.62-2.18,0-1.92,1-5,2.81-5,1.19,0,1.58,1,1.58,2C57.58,17.36,56.58,20.51,54.81,20.51Z"/><path class="cls-4" d="M69.57,10.71a4.44,4.44,0,0,0-3.55,2h0l.19-1.8h-3c-.15,1.22-.41,3.06-.68,4.44L60.2,27.6h3.35l.92-5h.07a4.1,4.1,0,0,0,2,.44c3.93,0,6.5-4,6.5-8.11C73,12.72,72,10.71,69.57,10.71Zm-3.21,9.85A2.07,2.07,0,0,1,65,20.08L65.54,17c.39-2.09,1.48-3.47,2.64-3.47s1.34.94,1.34,1.84C69.52,17.48,68.23,20.56,66.36,20.56Z"/><path class="cls-4" d="M77.79,5.91a1.9,1.9,0,0,0-1.91,1.94,1.54,1.54,0,0,0,1.57,1.67h0a1.89,1.89,0,0,0,2-1.94A1.59,1.59,0,0,0,77.79,5.91Z"/><polygon class="cls-4" points="73.11 22.84 76.46 22.84 78.74 10.98 75.37 10.98 73.11 22.84"/><path class="cls-4" d="M87.26,11H84.93l.12-.56c.19-1.14.87-2.16,2-2.16a3.47,3.47,0,0,1,1.07.17l.65-2.62a4.69,4.69,0,0,0-1.82-.29,4.93,4.93,0,0,0-3.27,1.12,6.34,6.34,0,0,0-2,3.78l-.09.56H80.07l-.48,2.53h1.55l-1.77,9.36h3.35l1.77-9.36H86.8Z"/><path class="cls-4" d="M95.31,11l-2,5.31c-.49,1.29-.73,2-1,2.84h0c0-.78-.14-1.63-.29-2.81L91.41,11H87.89l2,10.89a.69.69,0,0,1-.07.56,5.69,5.69,0,0,1-1.82,2,7,7,0,0,1-1.89.95L87,28.23a7.59,7.59,0,0,0,3.27-1.82,22.63,22.63,0,0,0,4.4-6.65L98.81,11Z"/></g></g></svg>